# This file uses centimeters as units for non-parametric coordinates.

mtllib alleyTree_3_v1.mtl
g default
v -2.061606 -0.084660 0.050922
v 2.462120 0.032200 0.053348
v -2.295375 8.960235 0.266004
v 2.228350 9.077094 0.268431
v 0.086964 -0.094953 2.087976
v -0.101154 0.110447 -2.428679
v -0.124414 8.943303 2.507805
v -0.312533 9.148703 -2.008850
vt 0.000000 0.000000
vt 1.000000 0.000000
vt 1.000000 1.000000
vt 0.000000 1.000000
vt 0.000000 0.000000
vt 1.000000 0.000000
vt 1.000000 1.000000
vt 0.000000 1.000000
vn 0.000077 -0.023771 0.999717
vn 0.000077 -0.023771 0.999717
vn 0.000077 -0.023771 0.999717
vn 0.000077 -0.023771 0.999717
vn 0.998863 0.025240 -0.040455
vn 0.998863 0.025240 -0.040455
vn 0.998863 0.025240 -0.040455
vn 0.998863 0.025240 -0.040455
g alleyTree_3_v1
usemtl lambert162SG
f 1/1/1 2/2/2 4/3/3 3/4/4
f 5/5/5 6/6/6 8/7/7 7/8/8
